<svg width="63" height="63" viewBox="0 0 63 63" fill="none" xmlns="http://www.w3.org/2000/svg">
<circle cx="31.2393" cy="31.2393" r="31.2393" fill="#F6A31C"/>
<g clip-path="url(#clip0_6813_1067)">
<mask id="mask0_6813_1067" style="mask-type:luminance" maskUnits="userSpaceOnUse" x="11" y="11" width="41" height="41">
<path d="M11.2383 11.853H51.2383V51.853H11.2383V11.853Z" fill="white"/>
</mask>
<g mask="url(#mask0_6813_1067)">
<path d="M50.0664 35.0624V28.6437H46.5263C46.1228 26.7117 45.362 24.9112 44.3166 23.3134L46.8211 20.8089L42.2824 16.2702L39.778 18.7748C38.1802 17.7294 36.3797 16.9686 34.4477 16.565V13.0249H28.0289V16.565C26.0969 16.9686 24.2963 17.7294 22.6986 18.7748L20.1941 16.2702L15.6555 20.8089L18.1599 23.3134C17.1145 24.9112 16.3537 26.7117 15.9502 28.6437H12.4102V35.0624H15.9502C16.3537 36.9944 17.1145 38.795 18.1599 40.3927L15.6555 42.8972L20.1941 47.4359L22.6986 44.9314C24.2963 45.9768 26.0969 46.7376 28.0289 47.1412V50.6812H34.4477V47.1412C36.3797 46.7376 38.1802 45.9768 39.778 44.9314L42.2824 47.4359L46.8211 42.8972L44.3166 40.3927C45.362 38.795 46.1228 36.9944 46.5263 35.0624H50.0664Z" stroke="white" stroke-width="2" stroke-miterlimit="10" stroke-linecap="round" stroke-linejoin="round"/>
<path d="M41.4727 31.853C41.4727 37.5053 36.8905 42.0874 31.2383 42.0874C25.586 42.0874 21.0039 37.5053 21.0039 31.853C21.0039 26.2008 25.586 21.6187 31.2383 21.6187C36.8905 21.6187 41.4727 26.2008 41.4727 31.853Z" stroke="white" stroke-width="2" stroke-miterlimit="10" stroke-linecap="round" stroke-linejoin="round"/>
<path d="M34.7676 30.6762C34.7676 32.6259 33.187 34.2065 31.2373 34.2065C29.2876 34.2065 27.707 32.6259 27.707 30.6762C27.707 28.7265 29.2876 27.1459 31.2373 27.1459C33.187 27.1459 34.7676 28.7265 34.7676 30.6762Z" stroke="white" stroke-width="2" stroke-miterlimit="10" stroke-linecap="round" stroke-linejoin="round"/>
<path d="M25.357 40.228C25.356 40.1822 25.3555 40.1364 25.3555 40.0904C25.3555 36.8408 27.9897 34.2065 31.2392 34.2065C34.4887 34.2065 37.123 36.8408 37.123 40.0904C37.123 40.1364 37.1225 40.1822 37.1215 40.228" stroke="white" stroke-width="2" stroke-miterlimit="10" stroke-linecap="round" stroke-linejoin="round"/>
</g>
</g>
<defs>
<clipPath id="clip0_6813_1067">
<rect width="40" height="40" fill="white" transform="translate(11.2383 11.853)"/>
</clipPath>
</defs>
</svg>
