<svg width="63" height="63" viewBox="0 0 63 63" fill="none" xmlns="http://www.w3.org/2000/svg">
<circle cx="31.2393" cy="31.2393" r="31.2393" fill="#F6A31C"/>
<path d="M50.0664 31.2393C50.0664 41.5946 41.5937 50.0674 31.2383 50.0674C20.8829 50.0674 12.4102 41.5946 12.4102 31.2393C12.4102 20.8839 20.8829 12.4111 31.2383 12.4111C41.5937 12.4111 50.0664 20.8839 50.0664 31.2393Z" stroke="white" stroke-width="2" stroke-miterlimit="10"/>
<path d="M31.2383 40.6143C26.069 40.6143 21.8633 36.4086 21.8633 31.2393C21.8633 26.07 26.069 21.8643 31.2383 21.8643C36.4076 21.8643 40.6133 26.07 40.6133 31.2393C40.6133 36.4086 36.4076 40.6143 31.2383 40.6143Z" stroke="white" stroke-width="2" stroke-miterlimit="10"/>
<path d="M20.6992 15.7291L27.5784 22.6082" stroke="white" stroke-width="2" stroke-miterlimit="10"/>
<path d="M39.8691 34.899L46.7483 41.7781" stroke="white" stroke-width="2" stroke-miterlimit="10"/>
<path d="M41.7776 46.7495L34.8984 39.8704" stroke="white" stroke-width="2" stroke-miterlimit="10"/>
<path d="M22.6077 27.5796L15.7285 20.7005" stroke="white" stroke-width="2" stroke-miterlimit="10"/>
<path d="M46.7483 20.7005L39.8691 27.5796" stroke="white" stroke-width="2" stroke-miterlimit="10"/>
<path d="M27.5784 39.8704L20.6992 46.7495" stroke="white" stroke-width="2" stroke-miterlimit="10"/>
<path d="M15.7285 41.7781L22.6077 34.899" stroke="white" stroke-width="2" stroke-miterlimit="10"/>
<path d="M34.8984 22.6082L41.7776 15.7291" stroke="white" stroke-width="2" stroke-miterlimit="10"/>
<path d="M28.8945 28.8955C28.8945 27.6011 29.9439 26.5518 31.2383 26.5518C32.5327 26.5518 33.582 27.6011 33.582 28.8955C33.582 29.6704 33.206 30.3575 32.6265 30.7841C31.7555 31.4254 31.2383 32.4462 31.2383 33.5277V33.583" stroke="white" stroke-width="2" stroke-miterlimit="10"/>
<path d="M31.2383 37.0986V34.7549" stroke="white" stroke-width="2" stroke-miterlimit="10"/>
</svg>
