<svg width="63" height="63" viewBox="0 0 63 63" fill="none" xmlns="http://www.w3.org/2000/svg">
<circle cx="31.2393" cy="31.2393" r="31.2393" fill="white"/>
<path d="M33.7538 20.0476C36.1861 20.0476 38.1579 18.0757 38.1579 15.6434C38.1579 13.2111 36.1861 11.2393 33.7538 11.2393C31.3214 11.2393 29.3496 13.2111 29.3496 15.6434C29.3496 18.0757 31.3214 20.0476 33.7538 20.0476Z" stroke="#F6A31C" stroke-width="2" stroke-miterlimit="10" stroke-linecap="square" stroke-linejoin="round"/>
<path d="M16.7676 42.6969C17.9356 42.6969 19.0558 42.2329 19.8818 41.4069C22.2785 39.0103 25.5294 37.6636 28.9187 37.6636C28.9187 37.6636 32.8381 37.6636 36.2667 37.6636C37.6015 37.6636 38.8818 38.1939 39.8257 39.1378C40.7696 40.0817 41.3 41.362 41.3 42.6969H16.7676Z" stroke="#F6A31C" stroke-width="2" stroke-miterlimit="10" stroke-linecap="square" stroke-linejoin="round"/>
<path d="M41.3049 27.5977C38.525 27.5977 36.2715 29.8511 36.2715 32.631C36.2715 35.1477 36.2715 37.6644 36.2715 37.6644H41.3049V32.631H50.1132V27.5977H41.3049Z" stroke="#F6A31C" stroke-width="2" stroke-miterlimit="10" stroke-linecap="square" stroke-linejoin="round"/>
<path d="M36.2718 37.6641C36.2718 37.6641 33.7552 37.6641 31.2384 37.6641C28.4586 37.6641 26.2051 35.4106 26.2051 32.6307C26.2051 31.0629 26.2051 29.2982 26.2051 27.5974C26.2051 23.4276 29.5854 20.0474 33.7551 20.0474C37.9248 20.0474 41.3051 23.4276 41.3051 27.5974" stroke="#F6A31C" stroke-width="2" stroke-miterlimit="10" stroke-linecap="square" stroke-linejoin="round"/>
<path d="M50.1131 37.6636H36.2715H36.2726C37.6058 37.6636 38.8845 38.1932 39.8273 39.136C40.77 40.0787 41.2997 41.3574 41.2997 42.6907C41.2997 42.6948 41.2997 42.6969 41.2997 42.6969H50.1131V37.6636Z" stroke="#F6A31C" stroke-width="2" stroke-miterlimit="10" stroke-linecap="square" stroke-linejoin="round"/>
<path d="M50.1133 42.6978H12.3633V47.7311H50.1133V42.6978Z" stroke="#F6A31C" stroke-width="2" stroke-miterlimit="10" stroke-linecap="square" stroke-linejoin="round"/>
<path d="M46.338 35.1475C46.338 33.7576 45.2112 32.6309 43.8213 32.6309H41.3047V37.6642H43.8213C45.2112 37.6641 46.338 36.5374 46.338 35.1475Z" stroke="#F6A31C" stroke-width="2" stroke-miterlimit="10" stroke-linecap="square" stroke-linejoin="round"/>
<path d="M31.2363 27.5977V32.631H36.2697" stroke="#F6A31C" stroke-width="2" stroke-miterlimit="10" stroke-linecap="square" stroke-linejoin="round"/>
<path d="M16.7674 42.6975C19.1998 42.6975 21.1716 40.7257 21.1716 38.2933C21.1716 35.861 19.1998 33.8892 16.7674 33.8892C14.3351 33.8892 12.3633 35.861 12.3633 38.2933C12.3633 40.7257 14.3351 42.6975 16.7674 42.6975Z" stroke="#F6A31C" stroke-width="2" stroke-miterlimit="10" stroke-linecap="square" stroke-linejoin="round"/>
</svg>
