<?xml version="1.0" encoding="UTF-8"?>
<svg id="Warstwa_1" data-name="Warstwa 1" xmlns="http://www.w3.org/2000/svg" viewBox="0 0 597.65 318.34">
  <defs>
    <style>
      .cls-1 {
        fill: #f6a31c;
      }

      .cls-2 {
        fill: #256961;
      }
    </style>
  </defs>
  <g>
    <path class="cls-2" d="M233.99,171.35c0-23.3,13.84-35.3,34.45-35.3s34.45,11.86,34.45,35.3v36.29h-16.8v-36.29c0-13.27-7.06-19.63-17.65-19.63s-17.65,6.35-17.65,19.63v36.29h-16.8v-36.29Z"/>
    <path class="cls-2" d="M311.77,172.77c0-21.18,15.53-36.71,37.56-36.71s37.56,15.53,37.56,36.71-15.53,36.71-37.56,36.71-37.56-15.53-37.56-36.71ZM369.8,172.77c0-12.28-8.19-21.04-20.47-21.04s-20.61,8.75-20.61,21.04,8.33,21.04,20.61,21.04,20.47-8.75,20.47-21.04Z"/>
    <path class="cls-2" d="M395.76,108.86h16.8v98.78h-16.8v-98.78Z"/>
    <rect class="cls-2" x="421.44" y="135.84" width="16.8" height="71.8"/>
    <path class="cls-2" d="M418.69,120.16c0-6.5,4.66-11.3,11.15-11.3s11.16,4.8,11.16,11.3-4.66,11.15-11.16,11.15-11.15-4.66-11.15-11.15Z"/>
    <path class="cls-2" d="M447.12,173.47c0-22.17,15.53-37.42,37.7-37.42s37.14,14.83,37.14,37.28v34.31h-15.39v-13.7c-4.24,10.31-13.7,15.53-24.71,15.53-16.94,0-34.73-12.14-34.73-36.01ZM505.15,172.77c0-12.28-8.19-21.04-20.47-21.04s-20.61,8.75-20.61,21.04,8.33,21.04,20.61,21.04,20.47-8.75,20.47-21.04Z"/>
  </g>
  <g>
    <path class="cls-1" d="M199.84,128.05c-7.68-7.68-17.88-11.9-28.74-11.9-10.19,0-19.81,3.73-27.31,10.54l-2.24-1.78c-16.16-12.81-39.35-11.46-53.95,3.14-7.68,7.68-11.9,17.88-11.9,28.74s4.23,21.06,11.9,28.74l5.95,5.95,11.9-11.9-5.95-5.95c-4.5-4.5-6.97-10.48-6.97-16.84s2.48-12.34,6.97-16.84c8.55-8.55,22.14-9.35,31.6-1.85l5.9,4.67,7.22,7.22,10.04-10.04c4.5-4.5,10.48-6.97,16.84-6.97s12.34,2.48,16.84,6.97c4.5,4.5,6.97,10.48,6.97,16.84s-2.48,12.34-6.97,16.84l-15.06,15.06v-5.97c0-16.08-13.08-29.16-29.16-29.16s-29.16,13.08-29.16,29.16v29.84h16.83v-29.84c0-6.8,5.53-12.33,12.32-12.33s12.33,5.53,12.33,12.33v22.8l-24.25,24.25,11.9,11.9,56.14-56.14c7.68-7.68,11.9-17.88,11.9-28.74s-4.23-21.06-11.9-28.74Z"/>
    <path class="cls-1" d="M143.72,106.25c-8.15,0-14.79-6.63-14.79-14.79s6.63-14.79,14.79-14.79,14.79,6.63,14.79,14.79-6.63,14.79-14.79,14.79Z"/>
  </g>
</svg>